<svg width="181" height="45" viewBox="0 0 181 45" fill="none" xmlns="http://www.w3.org/2000/svg">
<g clip-path="url(#clip0_68_188)">
<path d="M41.9875 11.2475C41.6232 10.6176 40.8173 10.4021 40.1873 10.766L23.8184 20.1178V1.31836C23.8184 0.590273 23.2281 0 22.5 0C16.49 0 10.8398 2.34044 6.59004 6.59004C2.34044 10.8398 0 16.49 0 22.5C0 28.51 2.34044 34.1602 6.59004 38.41C10.8398 42.6596 16.49 45 22.5 45C28.51 45 34.1602 42.6596 38.41 38.41C42.6596 34.1602 45 28.51 45 22.5C45 18.5447 43.9582 14.6537 41.9875 11.2475ZM40.3265 13.7302C41.6623 16.4445 42.3633 19.4503 42.3633 22.5C42.3633 25.593 41.6599 28.5774 40.3311 31.2725L37.5362 29.6588C38.5734 27.4888 39.1551 25.0611 39.1551 22.4999C39.1551 20.0152 38.5977 17.5663 37.5377 15.3402L40.3265 13.7302ZM8.48162 22.5C8.48162 20.4186 8.93821 18.442 9.75551 16.6642L19.8633 22.5L9.75551 28.3358C8.93821 26.558 8.48162 24.5814 8.48162 22.5ZM21.1816 20.2165L11.0776 14.3829C13.381 11.1509 17.0195 8.93303 21.1816 8.54306V20.2165ZM21.1816 24.7835V36.4559C17.0197 36.0658 13.3804 33.8493 11.077 30.6174L21.1816 24.7835ZM23.8184 24.7835L33.923 30.6174C31.6196 33.8493 27.9803 36.0658 23.8184 36.4559V24.7835ZM25.1367 22.5L35.2474 16.6626C36.0816 18.4847 36.5184 20.4782 36.5184 22.5C36.5184 24.5814 36.0618 26.558 35.2444 28.3358L25.1367 22.5ZM8.45455 8.45455C11.8939 5.01521 16.3719 2.99241 21.1816 2.67952V5.89711C16.0461 6.30123 11.5588 9.04518 8.78643 13.0602L5.99027 11.4458C6.70526 10.3826 7.52836 9.38074 8.45455 8.45455ZM4.66893 13.7275L7.46385 15.3412C6.42656 17.5111 5.8449 19.9388 5.8449 22.5C5.8449 25.0612 6.42656 27.4889 7.46385 29.6589L4.66893 31.2725C3.34011 28.5774 2.63672 25.593 2.63672 22.5C2.63672 19.407 3.34011 16.4226 4.66893 13.7275ZM5.99027 33.5543L8.78643 31.9399C11.5588 35.9549 16.0461 38.6989 21.1816 39.103V42.3192C16.3722 42.0062 11.8938 39.9847 8.45455 36.5455C7.52836 35.6193 6.70526 34.6174 5.99027 33.5543ZM36.5454 36.5454C33.1063 39.9846 28.6278 42.0061 23.8184 42.3192V39.1029C28.9539 38.6988 33.4412 35.9548 36.2136 31.9398L39.0097 33.5542C38.2947 34.6174 37.4716 35.6193 36.5454 36.5454Z" fill="#00A149"/>
<path d="M17.5734 32.3506C18.263 32.3506 18.9236 31.7442 18.8917 31.0322C18.8597 30.3179 18.3124 29.7139 17.5734 29.7139C16.8838 29.7139 16.2231 30.3202 16.255 31.0322C16.287 31.7465 16.8343 32.3506 17.5734 32.3506Z" fill="#FFB936"/>
<path d="M27.4269 29.7139C26.7373 29.7139 26.0766 30.3202 26.1085 31.0322C26.1405 31.7465 26.6878 32.3506 27.4269 32.3506C28.1165 32.3506 28.7772 31.7442 28.7453 31.0322C28.7133 30.3179 28.166 29.7139 27.4269 29.7139Z" fill="#FFB936"/>
<path d="M17.5734 15.2861C18.263 15.2861 18.9236 14.6798 18.8917 13.9678C18.8597 13.2535 18.3124 12.6494 17.5734 12.6494C16.8838 12.6494 16.2231 13.2558 16.255 13.9678C16.287 14.6821 16.8343 15.2861 17.5734 15.2861Z" fill="#FFB936"/>
<path d="M32.3527 21.1816C31.6631 21.1816 31.0024 21.788 31.0343 22.5C31.0663 23.2143 31.6136 23.8184 32.3527 23.8184C33.0423 23.8184 33.7029 23.212 33.671 22.5C33.639 21.7857 33.0917 21.1816 32.3527 21.1816Z" fill="#FFB936"/>
<path d="M12.6476 21.1816C11.958 21.1816 11.2973 21.788 11.3292 22.5C11.3612 23.2143 11.9085 23.8184 12.6476 23.8184C13.3372 23.8184 13.9979 23.212 13.966 22.5C13.934 21.7857 13.3867 21.1816 12.6476 21.1816Z" fill="#FFB936"/>
</g>
<path d="M73.94 14.906C73.94 15.0193 73.8947 15.1213 73.804 15.212C73.736 15.28 73.6453 15.314 73.532 15.314H66.46C66.3467 15.314 66.29 15.3707 66.29 15.484V20.856C66.29 20.9693 66.3467 21.026 66.46 21.026H70.506C70.6193 21.026 70.71 21.0713 70.778 21.162C70.8687 21.23 70.914 21.3207 70.914 21.434V24.732C70.914 24.8453 70.8687 24.9473 70.778 25.038C70.71 25.106 70.6193 25.14 70.506 25.14H66.46C66.3467 25.14 66.29 25.1967 66.29 25.31V34.592C66.29 34.7053 66.2447 34.8073 66.154 34.898C66.086 34.966 65.9953 35 65.882 35H61.904C61.7907 35 61.6887 34.966 61.598 34.898C61.53 34.8073 61.496 34.7053 61.496 34.592V11.608C61.496 11.4947 61.53 11.404 61.598 11.336C61.6887 11.2453 61.7907 11.2 61.904 11.2H73.532C73.6453 11.2 73.736 11.2453 73.804 11.336C73.8947 11.404 73.94 11.4947 73.94 11.608V14.906ZM82.3345 35.272C80.2492 35.272 78.5832 34.66 77.3365 33.436C76.0899 32.212 75.4665 30.58 75.4665 28.54V17.66C75.4665 15.62 76.0899 13.988 77.3365 12.764C78.5832 11.54 80.2492 10.928 82.3345 10.928C84.4199 10.928 86.0859 11.54 87.3325 12.764C88.6019 13.988 89.2365 15.62 89.2365 17.66V28.54C89.2365 30.58 88.6019 32.212 87.3325 33.436C86.0859 34.66 84.4199 35.272 82.3345 35.272ZM82.3345 31.158C82.9692 31.158 83.4792 30.9427 83.8645 30.512C84.2499 30.0587 84.4425 29.4693 84.4425 28.744V17.456C84.4425 16.7307 84.2499 16.1527 83.8645 15.722C83.4792 15.2687 82.9692 15.042 82.3345 15.042C81.6999 15.042 81.1899 15.2687 80.8045 15.722C80.4419 16.1527 80.2605 16.7307 80.2605 17.456V28.744C80.2605 29.4693 80.4419 30.0587 80.8045 30.512C81.1899 30.9427 81.6999 31.158 82.3345 31.158ZM98.4049 35.272C96.3195 35.272 94.6535 34.66 93.4069 33.436C92.1602 32.212 91.5369 30.58 91.5369 28.54V17.66C91.5369 15.62 92.1602 13.988 93.4069 12.764C94.6535 11.54 96.3195 10.928 98.4049 10.928C100.49 10.928 102.156 11.54 103.403 12.764C104.672 13.988 105.307 15.62 105.307 17.66V28.54C105.307 30.58 104.672 32.212 103.403 33.436C102.156 34.66 100.49 35.272 98.4049 35.272ZM98.4049 31.158C99.0395 31.158 99.5495 30.9427 99.9349 30.512C100.32 30.0587 100.513 29.4693 100.513 28.744V17.456C100.513 16.7307 100.32 16.1527 99.9349 15.722C99.5495 15.2687 99.0395 15.042 98.4049 15.042C97.7702 15.042 97.2602 15.2687 96.8749 15.722C96.5122 16.1527 96.3309 16.7307 96.3309 17.456V28.744C96.3309 29.4693 96.5122 30.0587 96.8749 30.512C97.2602 30.9427 97.7702 31.158 98.4049 31.158ZM108.355 35C108.242 35 108.14 34.966 108.049 34.898C107.981 34.8073 107.947 34.7053 107.947 34.592V11.608C107.947 11.4947 107.981 11.404 108.049 11.336C108.14 11.2453 108.242 11.2 108.355 11.2H114.509C116.572 11.2 118.227 11.8007 119.473 13.002C120.72 14.2033 121.343 15.8013 121.343 17.796V28.404C121.343 30.3987 120.72 31.9967 119.473 33.198C118.227 34.3993 116.572 35 114.509 35H108.355ZM112.741 30.716C112.741 30.8293 112.798 30.886 112.911 30.886L114.441 30.852C115.053 30.8293 115.552 30.5687 115.937 30.07C116.323 29.5713 116.527 28.914 116.549 28.098V18.102C116.549 17.2407 116.357 16.5607 115.971 16.062C115.586 15.5633 115.065 15.314 114.407 15.314H112.911C112.798 15.314 112.741 15.3707 112.741 15.484V30.716ZM124.425 35C124.312 35 124.21 34.966 124.119 34.898C124.051 34.8073 124.017 34.7053 124.017 34.592V11.608C124.017 11.4947 124.051 11.404 124.119 11.336C124.21 11.2453 124.312 11.2 124.425 11.2H128.403C128.517 11.2 128.607 11.2453 128.675 11.336C128.766 11.404 128.811 11.4947 128.811 11.608V20.176C128.811 20.2667 128.834 20.3233 128.879 20.346C128.947 20.346 128.993 20.3007 129.015 20.21L133.401 11.506C133.515 11.302 133.673 11.2 133.877 11.2H138.093C138.252 11.2 138.354 11.2453 138.399 11.336C138.467 11.404 138.467 11.5173 138.399 11.676L133.367 21.468C133.345 21.5587 133.333 21.6267 133.333 21.672L138.671 34.524C138.694 34.5693 138.705 34.6373 138.705 34.728C138.705 34.9093 138.592 35 138.365 35H134.115C133.866 35 133.707 34.898 133.639 34.694L130.103 25.786C130.081 25.718 130.047 25.6953 130.001 25.718C129.956 25.718 129.911 25.7407 129.865 25.786L128.879 27.554C128.834 27.6447 128.811 27.7127 128.811 27.758V34.592C128.811 34.7053 128.766 34.8073 128.675 34.898C128.607 34.966 128.517 35 128.403 35H124.425ZM141.127 35C141.013 35 140.911 34.966 140.821 34.898C140.753 34.8073 140.719 34.7053 140.719 34.592V11.608C140.719 11.4947 140.753 11.404 140.821 11.336C140.911 11.2453 141.013 11.2 141.127 11.2H145.105C145.218 11.2 145.309 11.2453 145.377 11.336C145.467 11.404 145.513 11.4947 145.513 11.608V34.592C145.513 34.7053 145.467 34.8073 145.377 34.898C145.309 34.966 145.218 35 145.105 35H141.127ZM158.279 11.608C158.279 11.4947 158.313 11.404 158.381 11.336C158.471 11.2453 158.573 11.2 158.687 11.2H162.631C162.744 11.2 162.835 11.2453 162.903 11.336C162.993 11.404 163.039 11.4947 163.039 11.608V34.592C163.039 34.7053 162.993 34.8073 162.903 34.898C162.835 34.966 162.744 35 162.631 35H158.143C157.916 35 157.769 34.8867 157.701 34.66L153.485 21.502C153.462 21.434 153.417 21.4113 153.349 21.434C153.303 21.434 153.281 21.468 153.281 21.536L153.315 34.592C153.315 34.7053 153.269 34.8073 153.179 34.898C153.111 34.966 153.02 35 152.907 35H148.963C148.849 35 148.747 34.966 148.657 34.898C148.589 34.8073 148.555 34.7053 148.555 34.592V11.608C148.555 11.4947 148.589 11.404 148.657 11.336C148.747 11.2453 148.849 11.2 148.963 11.2H153.417C153.643 11.2 153.791 11.3133 153.859 11.54L158.109 24.698C158.131 24.766 158.165 24.8 158.211 24.8C158.279 24.7773 158.313 24.732 158.313 24.664L158.279 11.608ZM172.445 35.272C170.405 35.272 168.762 34.694 167.515 33.538C166.291 32.3593 165.679 30.7953 165.679 28.846V17.354C165.679 15.4047 166.291 13.852 167.515 12.696C168.762 11.5173 170.405 10.928 172.445 10.928C174.485 10.928 176.129 11.5173 177.375 12.696C178.622 13.8747 179.245 15.4387 179.245 17.388V18.68C179.245 18.7933 179.2 18.8953 179.109 18.986C179.041 19.054 178.951 19.088 178.837 19.088H174.859C174.746 19.088 174.644 19.054 174.553 18.986C174.485 18.8953 174.451 18.7933 174.451 18.68V17.32C174.451 16.64 174.27 16.096 173.907 15.688C173.545 15.2573 173.057 15.042 172.445 15.042C171.856 15.042 171.38 15.2573 171.017 15.688C170.655 16.096 170.473 16.64 170.473 17.32V28.88C170.473 29.56 170.655 30.1153 171.017 30.546C171.38 30.954 171.856 31.158 172.445 31.158C173.057 31.158 173.545 30.954 173.907 30.546C174.27 30.1153 174.451 29.56 174.451 28.88V26.16C174.451 26.0467 174.395 25.99 174.281 25.99H172.785C172.672 25.99 172.57 25.956 172.479 25.888C172.411 25.7973 172.377 25.6953 172.377 25.582V22.556C172.377 22.4427 172.411 22.352 172.479 22.284C172.57 22.1933 172.672 22.148 172.785 22.148H178.837C178.951 22.148 179.041 22.1933 179.109 22.284C179.2 22.352 179.245 22.4427 179.245 22.556V28.846C179.245 30.7953 178.622 32.3593 177.375 33.538C176.129 34.694 174.485 35.272 172.445 35.272Z" fill="#212121"/>
<defs>
<clipPath id="clip0_68_188">
<rect width="45" height="45" fill="white"/>
</clipPath>
</defs>
</svg>